#N canvas 2 25 1440 847 12;
#X msg 295 258 devices;
#X msg 423 228 close;
#X msg 418 276 open 5;
#X obj 214 389 print;
#X obj 284 406 sel 13 10;
#X obj 266 459 cyclone/zl group 100;
#X obj 276 555 cyclone/fromsymbol;
#X obj 273 504 list tosymbol;
#X obj 279 344 comport 5 9600;
#X floatatom 831 159 5 0 0 0 - - - 0;
#X obj 835 252 osc~;
#X obj 805 286 *~ 0.1;
#X obj 811 323 dac~;
#X obj 888 176 vsl 15 128 0 127 0 0 empty empty empty 0 -9 0 10 #fcfcfc
#000000 #000000 0 1;
#X floatatom 833 225 5 0 0 0 - - - 0;
#X floatatom 683 558 5 0 0 0 - - - 0;
#X obj 688 646 osc~;
#X obj 658 680 *~ 0.1;
#X obj 664 717 dac~;
#X obj 735 577 vsl 15 128 0 127 0 0 empty empty empty 0 -9 0 10 #fcfcfc
#000000 #000000 0 1;
#X floatatom 686 619 5 0 0 0 - - - 0;
#X floatatom 689 351 5 0 0 0 - - - 0;
#X obj 697 441 osc~;
#X obj 667 475 *~ 0.1;
#X obj 673 512 dac~;
#X obj 745 360 vsl 15 128 0 127 0 0 empty empty empty 0 -9 0 10 #fcfcfc
#000000 #000000 0 1;
#X floatatom 695 414 5 0 0 0 - - - 0;
#X floatatom 824 358 5 0 0 0 - - - 0;
#X obj 832 448 osc~;
#X obj 802 482 *~ 0.1;
#X obj 808 519 dac~;
#X obj 881 360 vsl 15 128 0 127 0 0 empty empty empty 0 -9 0 10 #fcfcfc
#000000 #000000 0 1;
#X floatatom 830 421 5 0 0 0 - - - 0;
#X floatatom 695 143 5 0 0 0 - - - 0;
#X obj 703 233 osc~;
#X obj 673 267 *~ 0.1;
#X obj 679 304 dac~;
#X obj 757 170 vsl 15 128 0 127 0 0 empty empty empty 0 -9 0 10 #fcfcfc
#000000 #000000 0 1;
#X floatatom 701 206 5 0 0 0 - - - 0;
#X floatatom 812 554 5 0 0 0 - - - 0;
#X obj 817 642 osc~;
#X obj 787 676 *~ 0.1;
#X obj 793 713 dac~;
#X obj 863 564 vsl 15 128 0 127 0 0 empty empty empty 0 -9 0 10 #fcfcfc
#000000 #000000 0 1;
#X floatatom 815 615 5 0 0 0 - - - 0;
#X obj 1149 257 vsl 15 128 0 127 0 0 empty empty empty 0 -9 0 10 #fcfcfc
#000000 #000000 0 1;
#X obj 704 174 * 1;
#X obj 836 193 * 2;
#X obj 698 382 * 3;
#X obj 833 389 * 4;
#X obj 689 587 * 5;
#X obj 818 583 * 6;
#X floatatom 1137 198 5 0 0 0 - - - 0;
#X obj 686 98 unpack f f f f f f f f f f f f f;
#X connect 0 0 8 0;
#X connect 1 0 8 0;
#X connect 2 0 8 0;
#X connect 4 0 5 0;
#X connect 4 2 5 0;
#X connect 5 0 7 0;
#X connect 6 0 53 0;
#X connect 7 0 6 0;
#X connect 8 0 3 0;
#X connect 8 0 4 0;
#X connect 9 0 47 0;
#X connect 10 0 11 0;
#X connect 11 0 12 0;
#X connect 13 0 11 1;
#X connect 14 0 10 0;
#X connect 15 0 50 0;
#X connect 16 0 17 0;
#X connect 17 0 18 0;
#X connect 19 0 17 1;
#X connect 20 0 16 0;
#X connect 21 0 48 0;
#X connect 22 0 23 0;
#X connect 23 0 24 0;
#X connect 25 0 23 1;
#X connect 26 0 22 0;
#X connect 27 0 49 0;
#X connect 28 0 29 0;
#X connect 29 0 30 0;
#X connect 31 0 29 1;
#X connect 32 0 28 0;
#X connect 33 0 46 0;
#X connect 34 0 35 0;
#X connect 35 0 36 0;
#X connect 37 0 35 1;
#X connect 38 0 34 0;
#X connect 39 0 51 0;
#X connect 40 0 41 0;
#X connect 41 0 42 0;
#X connect 43 0 41 1;
#X connect 44 0 40 0;
#X connect 46 0 38 0;
#X connect 47 0 14 0;
#X connect 48 0 26 0;
#X connect 49 0 32 0;
#X connect 50 0 20 0;
#X connect 51 0 44 0;
#X connect 52 0 45 0;
#X connect 53 0 37 0;
#X connect 53 1 13 0;
#X connect 53 2 25 0;
#X connect 53 3 31 0;
#X connect 53 4 19 0;
#X connect 53 5 43 0;
#X connect 53 6 33 0;
#X connect 53 7 9 0;
#X connect 53 8 21 0;
#X connect 53 9 27 0;
#X connect 53 10 15 0;
#X connect 53 11 39 0;
